<?xml version="1.0" encoding="UTF-8"?>
<svg width="12px" height="9px" viewBox="0 0 12 9" version="1.1" xmlns="http://www.w3.org/2000/svg" xmlns:xlink="http://www.w3.org/1999/xlink">
  <g stroke="none" stroke-width="1" fill-rule="evenodd" transform="translate(0 -9)">
    <path d="M11.1428571,12.4285714 L2.91428571,12.4285714 L4.89428571,10.4485714 C5.06314286,10.2797143 5.14285714,10.0782857 5.14285714,9.85714286 C5.14285714,9.43542857 4.79442857,9 4.28571429,9 C4.05814286,9 3.85971429,9.08271429 3.69428571,9.24857143 L0.283714286,12.6591429 C0.143142857,12.7997143 0,12.9732857 0,13.2857143 C0,13.5981429 0.119571429,13.7485714 0.276857143,13.9058571 L3.69428571,17.3228571 C3.85971429,17.4887143 4.05814286,17.5714286 4.28571429,17.5714286 C4.79485714,17.5714286 5.14285714,17.136 5.14285714,16.7142857 C5.14285714,16.4931429 5.06314286,16.2917143 4.89428571,16.1228571 L2.91428571,14.1428571 L11.1428571,14.1428571 C11.616,14.1428571 12,13.7588571 12,13.2857143 C12,12.8125714 11.616,12.4285714 11.1428571,12.4285714 Z"></path>
  </g>
</svg>
