<?xml version="1.0" encoding="UTF-8"?>
<svg width="434px" height="123px" viewBox="0 0 434 123" version="1.1" xmlns="http://www.w3.org/2000/svg" xmlns:xlink="http://www.w3.org/1999/xlink">
  <g stroke="none" stroke-width="1" fill-rule="evenodd">
    <path d="M158,77.94 L190.39,78.29 C184.18296,86.5227857 174.40882,91.2853091 164.1,91.1 C145.22,91.1 133.1,78.29 133.1,60.97 C133.1,44.17 144.36,31.18 162.2,31.18 C172.76,31.18 181.6,35.18 185.58,45.55 L221.78,45.55 C219,18.88 194.07,0 161.51,0 C136.32,0 116.1,11.86 105.56,30.54 C95,13 74.85,2.6 49.54,2.6 L0,2.6 L0,120.38 L49.54,120.38 C74.65,120.38 94.7,110.09 105.32,92.66 C115.75,111.22 136.06,123 161.85,123 C176.05,123 187.85,118.15 196.85,109.49 L197.71,120.41 L223,120.41 L223,53.41 L158,53.41 L158,77.94 Z M49.54,89.55 L34.81,89.55 L34.81,33.43 L49.54,33.43 C66,33.43 78.11,45 78.11,61.31 C78.11,77.77 66,89.55 49.54,89.55 Z"></path>
    <path d="M369.09,2.6 L319.56,2.6 L319.56,90.24 L266,90.24 L266,2.6 L231.18,2.6 L231.18,120.38 L369.09,120.38 C406.85,120.38 433.18,97.17 433.18,61.31 C433.18,25.63 406.85,2.6 369.09,2.6 Z M369.09,89.6 L354.37,89.6 L354.37,33.43 L369.09,33.43 C385.55,33.43 397.67,45.03 397.67,61.31 C397.67,77.77 385.55,89.55 369.09,89.55 L369.09,89.6 Z"></path>
  </g>
</svg>
