<?xml version="1.0" encoding="UTF-8"?>
<svg width="7px" height="14px" viewBox="0 0 7 14" version="1.1" xmlns="http://www.w3.org/2000/svg" xmlns:xlink="http://www.w3.org/1999/xlink">
    <g stroke="none" stroke-width="1" fill-rule="evenodd" transform="translate(-0.981104,-0.601011)">
      <path d="M7.64052968,1.09106257 L7.64052968,3.0944392 L6.43385936,3.0944392 C5.99320472,3.0944392 5.6960235,3.18550086 5.54230676,3.36762692 C5.38859003,3.54975298 5.31173282,3.82293797 5.31173282,4.18719009 L5.31173282,5.62142563 L7.5636717,5.62142563 L7.26392557,7.86763578 L5.31173282,7.86763578 L5.31173282,13.6273436 L2.95987855,13.6273436 L2.95987855,7.86763578 L1,7.86763578 L1,5.62142563 L2.95987855,5.62142563 L2.95987855,3.9671222 C2.95987855,3.02613757 3.22631689,2.29637951 3.75920157,1.77782615 C4.29208625,1.25927279 5.00173452,1 5.88816768,1 C6.64137968,1 7.2254945,1.03035389 7.64052968,1.09106257 Z"></path>
    </g>
</svg>
