<svg height="350" viewBox="0 0 568 350" width="568" xmlns="http://www.w3.org/2000/svg"><g fill="none" fill-rule="evenodd" transform="translate(4)"><g fill-rule="nonzero"><path d="m380.84 339.68c-44.26 9.31-85.67 5.58-159 7.63s-178.71 9.94-210.43-23.95 10.1-109.49 54.84-165.89c44.93-56.34 92.65-93.47 150.75-121.62s126.24-47.76 168.14-26.33 57.56 83.85 75.51 136.73 38.14 96.1 24.77 128.91-60.32 55.21-104.58 64.52z" fill="#fbe95e" opacity=".5" transform="translate(35)"/><path d="m549.26 331.310095h-165.19c-3.727001-.00403-7.184997-1.941668-9.134213-5.118319-1.949215-3.17665-2.110408-7.137231-.425787-10.461776l40-78.63c1.827833-3.598728 5.52369-5.86418 9.56-5.860006h85.23c4.03631-.004174 7.732167 2.261278 9.56 5.860006l40 78.63c1.693994 3.330408 1.531663 7.302571-.428435 10.483647s-5.435125 5.11204-9.171565 5.096448z" fill="#fff"/><g transform="translate(392 244)"><path d="m158.34 87.31h-148.66c-7.2 0-11.86-7.36-8.6-13.58l36-68.52c1.6995214-3.16416606 5.0083555-5.1302291 8.6-5.11019041h76.74c3.592251-.0222737 6.902151 1.94442279 8.6 5.11019041l36 68.52c3.18 6.27-1.48 13.58-8.68 13.58z" fill="#fbe95e"/><circle cx="20.95" cy="22.54" fill="#fff" r="20.93"/></g></g><path d="m549.26 331.310095h-165.19c-3.727001-.00403-7.184997-1.941668-9.134213-5.118319-1.949215-3.17665-2.110408-7.137231-.425787-10.461776l40-78.63c1.827833-3.598728 5.52369-5.86418 9.56-5.860006h85.23c4.03631-.004174 7.732167 2.261278 9.56 5.860006l40 78.63c1.693994 3.330408 1.531663 7.302571-.428435 10.483647s-5.435125 5.11204-9.171565 5.096448z" stroke="#f09035" stroke-width="7.148109"/><path d="m362.6 331.310221h-165.2c-3.727001-.004156-7.184997-1.941794-9.134213-5.118445-1.949215-3.17665-2.110408-7.137231-.425787-10.461776l40-78.63c1.829599-3.597098 5.524341-5.861867 9.56-5.860001h85.28c4.035659-.001866 7.730401 2.262903 9.56 5.860001l40 78.63c1.691161 3.337267 1.521923 7.314451-.446628 10.495989-1.96855 3.181538-5.452142 5.107993-9.193372 5.084232z" fill="#fff" fill-rule="nonzero"/><g fill-rule="nonzero" transform="translate(205 244)"><path d="m158.67 87.31h-148.67c-7.2 0-11.87-7.36-8.6-13.58l35.95-68.52c1.7095936-3.17852833 5.0410648-5.14659982 8.65-5.11050177h76.73c3.592251-.02196234 6.902151 1.94473415 8.6 5.11050177l36 68.52c3.21 6.27-1.46 13.58-8.66 13.58z" fill="#fbe95e"/><circle cx="21.28" cy="22.54" fill="#fff" r="20.93"/></g><path d="m362.6 331.310221h-165.2c-3.727001-.004156-7.184997-1.941794-9.134213-5.118445-1.949215-3.17665-2.110408-7.137231-.425787-10.461776l40-78.63c1.829599-3.597098 5.524341-5.861867 9.56-5.860001h85.28c4.035659-.001866 7.730401 2.262903 9.56 5.860001l40 78.63c1.691161 3.337267 1.521923 7.314451-.446628 10.495989-1.96855 3.181538-5.452142 5.107993-9.193372 5.084232z" stroke="#f09035" stroke-width="7.148109"/><path d="m175.93 331.310161h-165.19c-3.72932384.001565-7.19154881-1.93499-9.14197851-5.11362-1.9504297-3.178629-2.10874165-7.142489-.41802149-10.466541l40-78.63c1.8278331-3.598728 5.5236897-5.86418 9.56-5.860006h85.26c4.03631-.004174 7.732167 2.261278 9.56 5.860006l40 78.63c1.690328 3.335673 1.522091 7.310771-.444038 10.491692-1.966128 3.180922-5.446509 5.108783-9.185962 5.088469z" fill="#fff" fill-rule="nonzero"/><g fill-rule="nonzero" transform="translate(18 244)"><path d="m159 87.31h-148.65c-7.2 0-11.86-7.36-8.6-13.58l36-68.52c1.6978485-3.16576762 5.0077487-5.13246411 8.6-5.11019041h76.74c3.591645-.02003869 6.900479 1.94602435 8.6 5.11019041l36 68.52c3.18 6.27-1.48 13.58-8.69 13.58z" fill="#fbe95e"/><circle cx="21.62" cy="22.54" fill="#fff" r="20.93"/></g><path d="m175.93 331.310161h-165.19c-3.72932384.001565-7.19154881-1.93499-9.14197851-5.11362-1.9504297-3.178629-2.10874165-7.142489-.41802149-10.466541l40-78.63c1.8278331-3.598728 5.5236897-5.86418 9.56-5.860006h85.26c4.03631-.004174 7.732167 2.261278 9.56 5.860006l40 78.63c1.690328 3.335673 1.522091 7.310771-.444038 10.491692-1.966128 3.180922-5.446509 5.108783-9.185962 5.088469z" stroke="#f09035" stroke-width="7.148109"/><path d="m455.93 231.240161h-165.19c-3.729324.001565-7.191549-1.93499-9.141979-5.11362-1.950429-3.178629-2.108741-7.142489-.418021-10.466541l40-78.63c1.826834-3.600979 5.522132-5.87 9.56-5.87h85.26c4.037868 0 7.733166 2.269021 9.56 5.87l40 78.63c1.690328 3.335673 1.522091 7.310771-.444038 10.491692-1.966128 3.180922-5.446509 5.108783-9.185962 5.088469z" fill="#fff" fill-rule="nonzero"/><g fill-rule="nonzero" transform="translate(298 144)"><path d="m159 87.24h-148.65c-7.2 0-11.86-7.36-8.6-13.58l36-68.52c1.6944877-3.16898216 5.0065323-5.13695284 8.6-5.11027336h76.74c3.592859-.02443199 6.903829 1.94290038 8.6 5.11027336l36 68.52c3.18 6.22-1.48 13.58-8.69 13.58z" fill="#fbe95e"/><circle cx="21.62" cy="22.47" fill="#fff" r="20.93"/></g><path d="m455.93 231.240161h-165.19c-3.729324.001565-7.191549-1.93499-9.141979-5.11362-1.950429-3.178629-2.108741-7.142489-.418021-10.466541l40-78.63c1.826834-3.600979 5.522132-5.87 9.56-5.87h85.26c4.037868 0 7.733166 2.269021 9.56 5.87l40 78.63c1.690328 3.335673 1.522091 7.310771-.444038 10.491692-1.966128 3.180922-5.446509 5.108783-9.185962 5.088469z" stroke="#f09035" stroke-width="7.148109"/><path d="m269.26 231.240095h-165.19c-3.727001-.00403-7.1849971-1.941668-9.1342127-5.118319-1.9492155-3.17665-2.1104085-7.137231-.4257873-10.461776l40-78.63c1.826834-3.600979 5.522132-5.87 9.56-5.87h85.23c4.037868 0 7.733166 2.269021 9.56 5.87l40 78.63c1.693994 3.330408 1.531663 7.302571-.428435 10.483647s-5.435125 5.11204-9.171565 5.096448z" fill="#fff" fill-rule="nonzero"/><g fill-rule="nonzero" transform="translate(112 144)"><path d="m158.34 87.24h-148.66c-7.2 0-11.86-7.36-8.6-13.58l36-68.52c1.6961706-3.16737298 5.007141-5.13470535 8.6-5.11027336h76.74c3.593468-.02667948 6.905512 1.9412912 8.6 5.11027336l36 68.52c3.18 6.22-1.48 13.58-8.68 13.58z" fill="#fbe95e"/><circle cx="20.95" cy="22.47" fill="#fff" r="20.93"/></g><path d="m269.26 231.240095h-165.19c-3.727001-.00403-7.1849971-1.941668-9.1342127-5.118319-1.9492155-3.17665-2.1104085-7.137231-.4257873-10.461776l40-78.63c1.826834-3.600979 5.522132-5.87 9.56-5.87h85.23c4.037868 0 7.733166 2.269021 9.56 5.87l40 78.63c1.693994 3.330408 1.531663 7.302571-.428435 10.483647s-5.435125 5.11204-9.171565 5.096448z" stroke="#f09035" stroke-width="7.148109"/><path d="m362.6 131.160018h-165.2c-3.729324.001708-7.191549-1.934847-9.141979-5.113477-1.950429-3.178629-2.108741-7.142489-.418021-10.466541l40-78.63c1.833116-3.5938477 5.525642-5.8572579 9.56-5.86h85.28c4.03098.0273099 7.707236 2.3095232 9.52 5.91l40 78.63c1.670037 3.326276 1.495216 7.280747-.46183 10.446677-1.957045 3.165929-5.416196 5.090163-9.13817 5.083341z" fill="#fff" fill-rule="nonzero"/><g fill-rule="nonzero" transform="translate(205 43)"><path d="m158.67 88.16h-148.67c-7.2 0-11.87-7.36-8.6-13.57l35.95-68.52c1.7169614-3.16629501 5.0484752-5.11898579 8.65-5.07h76.73c3.593468-.02695284 6.905512 1.94101784 8.6 5.11l36 68.52c3.21 6.17-1.46 13.53-8.66 13.53z" fill="#fbe95e"/><circle cx="21.28" cy="23.4" fill="#fff" r="20.93"/></g><path d="m362.6 131.160018h-165.2c-3.729324.001708-7.191549-1.934847-9.141979-5.113477-1.950429-3.178629-2.108741-7.142489-.418021-10.466541l40-78.63c1.833116-3.5938477 5.525642-5.8572579 9.56-5.86h85.28c4.03098.0273099 7.707236 2.3095232 9.52 5.91l40 78.63c1.670037 3.326276 1.495216 7.280747-.46183 10.446677-1.957045 3.165929-5.416196 5.090163-9.13817 5.083341z" stroke="#f09035" stroke-width="7.148109"/></g></svg>