<?xml version="1.0" encoding="UTF-8"?>
<svg width="12px" height="12px" viewBox="0 0 12 12" version="1.1" xmlns="http://www.w3.org/2000/svg" xmlns:xlink="http://www.w3.org/1999/xlink">
  <g stroke="none" stroke-width="1" fill-rule="evenodd" transform="translate(0.805386, -0.026332)">
    <path d="M10.3503503,0.721975778 C9.88797061,0.256526192 9.27280254,6.66133815e-14 8.61908316,6.66133815e-14 C7.96471437,6.66133815e-14 7.35012191,0.256526192 6.88781603,0.721975778 L5.543907,2.0748075 C5.08152732,2.54025708 4.82669306,3.15950947 4.82669306,3.81756913 C4.82669306,4.22904213 4.92643353,4.62543498 5.11380593,4.97829592 L4.94431001,5.14949662 C4.59320077,4.96030373 4.19999798,4.85989807 3.79123887,4.85989807 C3.13687008,4.85989807 2.52227762,5.11642427 2.05997174,5.58187385 L0.716062713,6.93470557 C-0.238687571,7.89579478 -0.238687571,9.45866419 0.716062713,10.4203774 C1.17901801,10.885827 1.79361046,11.1417738 2.44732984,11.1417738 C3.10169864,11.1417738 3.71629109,10.8852476 4.17859698,10.4203774 L5.522506,9.06754569 C6.30197471,8.28290181 6.44381169,7.09657588 5.95086547,6.16457727 L6.12151262,5.99279714 C6.47204625,6.18199003 6.86582466,6.28239568 7.27515938,6.28239568 C7.92952817,6.28239568 8.54412062,6.02586949 9.00642651,5.56041991 L10.3503355,4.20758819 C10.8132908,3.7421386 11.0675495,3.12288622 11.0675495,2.46482656 C11.0669739,1.80611317 10.8127152,1.18744022 10.3503355,0.722064922 L10.3503503,0.721975778 Z M4.51407611,8.05316333 L3.17016708,9.40599505 C2.97702674,9.60099715 2.71989003,9.70777659 2.4466214,9.70777659 C2.173338,9.70777659 1.91620129,9.60098972 1.72307571,9.40657449 C1.32411679,9.00496673 1.32411679,8.35088883 1.72307571,7.94928107 L3.06698474,6.59644935 C3.26012508,6.40202669 3.51726179,6.29466782 3.79053042,6.29466782 C3.79514271,6.29466782 3.79975499,6.29582817 3.80494437,6.29640909 L3.26934374,6.83556576 C2.99087983,7.11587849 2.99087983,7.56972452 3.26934374,7.85003726 C3.40828937,7.98990539 3.59105244,8.06013438 3.77324137,8.06013438 C3.9554303,8.06013438 4.13819484,7.98990985 4.27713899,7.85003726 L4.812164,7.31146003 C4.81562358,7.57958977 4.7176129,7.84945782 4.51409972,8.0531663 L4.51407611,8.05316333 Z M9.34258457,3.19319097 L7.99867554,4.54602269 C7.8055352,4.74044536 7.54839849,4.84722479 7.27512986,4.84722479 C7.27051757,4.84722479 7.26590529,4.84606444 7.26071739,4.84606444 L7.9640871,4.13802481 C8.24255101,3.85771208 8.24255101,3.40386604 7.9640871,3.12355331 C7.68562318,2.84324057 7.23477052,2.84324057 6.95630661,3.12355331 L6.2529369,3.83159294 C6.2529369,3.82695003 6.25178273,3.82230712 6.25178273,3.8170833 C6.25178273,3.54198547 6.35786527,3.28314154 6.55157384,3.08873522 L7.89548287,1.73590202 C8.08862321,1.54147935 8.34575992,1.43412048 8.61902855,1.43412048 C8.89229719,1.43412048 9.14944865,1.54148826 9.34257423,1.73590202 C9.53569981,1.93031577 9.64236535,2.18916861 9.64236535,2.46425158 C9.64236535,2.73992883 9.53570572,2.99877276 9.34257423,3.19318057 L9.34258457,3.19319097 Z"></path>
  </g>
</svg>
