<?xml version="1.0" encoding="UTF-8"?>
<svg width="14px" height="10px" viewBox="0 0 14 10" version="1.1" xmlns="http://www.w3.org/2000/svg" xmlns:xlink="http://www.w3.org/1999/xlink">
  <g stroke="none" stroke-width="1" fill-rule="evenodd" transform="translate(-0.114269, -0.570465)">
    <path d="M1.62716114,1 C1.28009016,1 1,1.28433807 1,1.63667279 L1,9.27674622 C1,9.62908094 1.28009016,9.913419 1.62716114,9.913419 L12.9160616,9.913419 C13.2631326,9.913419 13.5432227,9.62908094 13.5432227,9.27674622 L13.5432227,1.63667279 C13.5432227,1.28433807 13.2631326,1 12.9160616,1 L1.62716114,1 Z M3.29306836,2.47894844 C3.46047439,2.47894844 3.62707347,2.54941326 3.74382997,2.67127667 L7.07572804,6.03375788 C7.13942461,6.09759069 7.3966673,6.09178848 7.46118127,6.02712587 L10.79956,2.67143584 C11.0339301,2.43516657 11.45856,2.43682192 11.6912995,2.67475079 C11.924039,2.91268177 11.9224084,3.34374533 11.688032,3.5800146 L9.73467802,5.54308902 L11.6684249,7.32709073 C11.910969,7.55257901 11.929742,7.98282126 11.7076224,8.22904385 C11.4855029,8.47526643 11.0616883,8.49432417 10.8191442,8.2688359 L8.83965637,6.43840164 L8.3431538,6.93581286 C7.74049376,7.54099157 6.78994743,7.54264692 6.18739192,6.93581286 L5.69741183,6.44504426 L3.72446742,8.268855 C3.4819233,8.49434327 3.05810871,8.47610472 2.83598914,8.22906295 C2.61386957,7.98284036 2.63265096,7.55259811 2.87518671,7.32710983 L4.80893355,5.54311024 L2.85557747,3.58003582 C2.68327122,3.41257814 2.61794612,3.14066793 2.69552177,2.91186895 C2.79759852,2.6407949 3.0393106,2.50898241 3.29328996,2.47912246 L3.29306836,2.47894844 Z"></path>
  </g>
</svg>
