<?xml version="1.0" encoding="UTF-8"?>
<svg width="15px" height="15px" viewBox="0 0 15 15" version="1.1" xmlns="http://www.w3.org/2000/svg" xmlns:xlink="http://www.w3.org/1999/xlink">
  <g stroke="none" stroke-width="1" fill-rule="evenodd" transform="translate(-354.000000, -17.000000)">
    <!-- <rect id="Rectangle" stroke-opacity="0.117433348" stroke="#61636A" fill="#FFFFFF" x="0.5" y="0.5" width="388" height="48" rx="1"></rect> -->
    <path d="M363.039748,27.3862398 C362.104027,28.0529981 360.959107,28.4451769 359.722588,28.4451769 C356.56209,28.4451769 354,25.883087 354,22.7225885 C354,19.56209 356.56209,17 359.722588,17 C362.883087,17 365.445177,19.56209 365.445177,22.7225885 C365.445177,23.9591067 365.052998,25.1040265 364.38624,26.0397484 L368.146183,29.7996918 C368.516604,30.1701123 368.513515,30.7628042 368.146049,31.1302703 L368.13027,31.1460492 C367.763744,31.5125754 367.167084,31.5135753 366.799692,31.1461832 L363.039748,27.3862398 L363.039748,27.3862398 Z M359.722588,27.0986855 C362.13944,27.0986855 364.098686,25.1394403 364.098686,22.7225885 C364.098686,20.3057366 362.13944,18.3464914 359.722588,18.3464914 C357.305737,18.3464914 355.346491,20.3057366 355.346491,22.7225885 C355.346491,25.1394403 357.305737,27.0986855 359.722588,27.0986855 L359.722588,27.0986855 Z"></path>
  </g>
</svg>
