<?xml version="1.0" encoding="UTF-8"?>
<svg width="13px" height="11px" viewBox="0 0 13 11" version="1.1" xmlns="http://www.w3.org/2000/svg" xmlns:xlink="http://www.w3.org/1999/xlink">
  <g stroke="none" stroke-width="1" fill-rule="evenodd" transform="translate(0.623568, 0.657047)">
    <path d="M11.8053861,1.14667422 C11.4707986,1.63954542 11.0663034,2.05948551 10.5918883,2.40650707 C10.5968821,2.47691724 10.599379,2.58253092 10.599379,2.72335126 C10.599379,3.37716 10.5044974,4.02970163 10.3147314,4.68099573 C10.1249653,5.33228982 9.83657523,5.95717073 9.44955239,6.55565719 C9.06252955,7.15414366 8.60185443,7.68346933 8.06751322,8.1436501 C7.53317201,8.60383087 6.88897591,8.97096412 6.1349056,9.24506086 C5.38083528,9.5191576 4.57434172,9.65620392 3.7154007,9.65620392 C2.36206922,9.65620392 1.1236147,9.29158528 -8.44657677e-13,8.56233707 C0.174784509,8.58245426 0.369541469,8.59251271 0.584276723,8.59251271 C1.70789142,8.59251271 2.70914195,8.24549635 3.58805834,7.55145322 C3.06370481,7.54139462 2.5942906,7.3792022 2.17980162,7.06487107 C1.76531264,6.75053994 1.48066786,6.34945944 1.32585872,5.86161753 C1.49065554,5.88676402 1.64296547,5.89933708 1.78279308,5.89933708 C1.99752833,5.89933708 2.20976348,5.87167636 2.41950489,5.81635408 C1.86019446,5.70068022 1.39702246,5.42030107 1.02997499,4.97520819 C0.662927524,4.53011532 0.479406542,4.0133627 0.479406542,3.42493483 L0.479406542,3.39475919 C0.818987874,3.58587251 1.18353295,3.68897158 1.57305272,3.70405947 C1.24345907,3.48277036 0.98128624,3.19359006 0.786526358,2.8365099 C0.591766477,2.47942974 0.494387997,2.0921796 0.494387997,1.67474787 C0.494387997,1.23216964 0.604250897,0.822288001 0.823979995,0.445090649 C1.42823501,1.19445605 2.16356738,1.79419085 3.02999916,2.24431302 C3.89643094,2.69443519 4.82402339,2.94463902 5.81280432,2.994932 C5.77285358,2.80381867 5.75287851,2.61773744 5.75287851,2.43668271 C5.75287851,1.76275677 5.98883406,1.18816809 6.46075223,0.71289943 C6.9326704,0.237630767 7.50320842,-5.41788836e-14 8.1723834,-5.41788836e-14 C8.87152144,-5.41788836e-14 9.46078609,0.256490352 9.94019502,0.76947875 C10.4845239,0.663863491 10.9963852,0.467723811 11.4757941,0.181053823 C11.2910219,0.759423096 10.9364644,1.20702391 10.4121108,1.52386968 C10.8765382,1.4735767 11.3409587,1.34784614 11.8053861,1.14667422 Z"></path>
  </g>
</svg>
